<svg xmlns="http://www.w3.org/2000/svg" width="13" height="13" viewBox="0 0 13 13" xmlns:xlink="http://www.w3.org/1999/xlink">
  <desc>
    Created using Figma
  </desc>
  <use fill="#B6010E" xlink:href="#a" transform="matrix(1 0 0 -1 0 13)"/>
  <use fill="#B6010E" xlink:href="#b" transform="matrix(1 0 0 -1 3.075 9.24)"/>
  <defs>
    <path id="a" d="M6.2624 12.255h-3.658c-.994 0-1.8008-.7503-1.8008-1.669V2.414c0-.9214.8096-1.669 1.8008-1.669H6.322c.2232 0 .4018-.1656.4018-.3725C6.7238.1655 6.5452 0 6.322 0H2.6044C1.1668 0 0 1.0842 0 2.414v8.172C0 11.9185 1.1697 13 2.6044 13h3.658c.2233 0 .402-.1655.402-.3725s-.1817-.3724-.402-.3724z"/>
    <path id="b" d="M9.8074 2.4768L7.2536.1098c-.1577-.1464-.4107-.1464-.5685 0-.1576.146-.1576.3806 0 .5268l1.8693 1.7326H.4018c-.2232 0-.4018.1655-.4018.3725s.1786.3724.4018.3724h8.1525L6.685 4.8468c-.1576.1462-.1576.3807 0 .527.0775.0717.1817.1103.283.1103.101 0 .2052-.0358.2826-.1103l2.5538-2.3672c.1607-.149.1607-.3862.003-.5297z"/>
  </defs>
</svg>
